%TF.GenerationSoftware,KiCad,Pcbnew,10.0.5*%
%TF.CreationDate,2026-10-03T23:49:39+05:30*%
%TF.ProjectId,Echo Debug,4563686f-2044-4656-9275-672e6b696361,rev?*%
%TF.SameCoordinates,Original*%
%TF.FileFunction,Soldermask,Top*%
%TF.FilePolarity,Negative*%
%FSLAX46Y46*%
G04 Gerber Fmt 4.6, Leading zero omitted, Abs format (unit mm)*
G04 Created by KiCad (PCBNEW 10.0.5) date 2026-10-03 23:49:39*
%MOMM*%
%LPD*%
G01*
G04 APERTURE LIST*
G04 Aperture macros list*
%AMRoundRect*
0 Rectangle with rounded corners*
0 $1 Rounding radius*
0 $2 $3 $4 $5 $6 $7 $8 $9 X,Y pos of 4 corners*
0 Add a 4 corners polygon primitive as box body*
4,1,4,$2,$3,$4,$5,$6,$7,$8,$9,$2,$3,0*
0 Add four circle primitives for the rounded corners*
1,1,$1+$1,$2,$3*
1,1,$1+$1,$4,$5*
1,1,$1+$1,$6,$7*
1,1,$1+$1,$8,$9*
0 Add four rect primitives between the rounded corners*
20,1,$1+$1,$2,$3,$4,$5,0*
20,1,$1+$1,$4,$5,$6,$7,0*
20,1,$1+$1,$6,$7,$8,$9,0*
20,1,$1+$1,$8,$9,$2,$3,0*%
G04 Aperture macros list end*
%ADD10C,0.010000*%
%ADD11C,0.788500*%
%ADD12RoundRect,0.250000X0.262500X0.450000X-0.262500X0.450000X-0.262500X-0.450000X0.262500X-0.450000X0*%
%ADD13RoundRect,0.250000X-0.262500X-0.450000X0.262500X-0.450000X0.262500X0.450000X-0.262500X0.450000X0*%
%ADD14R,1.700000X1.700000*%
%ADD15C,1.700000*%
%ADD16RoundRect,0.243750X-0.243750X-0.456250X0.243750X-0.456250X0.243750X0.456250X-0.243750X0.456250X0*%
%ADD17RoundRect,0.243750X0.243750X0.456250X-0.243750X0.456250X-0.243750X-0.456250X0.243750X-0.456250X0*%
G04 APERTURE END LIST*
D10*
%TO.C,J7*%
X140213500Y-108536500D02*
X140213500Y-109063500D01*
X138736500Y-109063500D01*
X138736500Y-108536500D01*
X140213500Y-108536500D01*
G36*
X140213500Y-109063500D02*
G01*
X138736500Y-109063500D01*
X138736500Y-108536500D01*
X140213500Y-108536500D01*
X140213500Y-109063500D01*
G37*
X140213500Y-109186500D02*
X140213500Y-109713500D01*
X138736500Y-109713500D01*
X138736500Y-109186500D01*
X140213500Y-109186500D01*
G36*
X140213500Y-109713500D02*
G01*
X138736500Y-109713500D01*
X138736500Y-109186500D01*
X140213500Y-109186500D01*
X140213500Y-109713500D01*
G37*
X140213500Y-109836500D02*
X140213500Y-110363500D01*
X138736500Y-110363500D01*
X138736500Y-109836500D01*
X140213500Y-109836500D01*
G36*
X140213500Y-110363500D02*
G01*
X138736500Y-110363500D01*
X138736500Y-109836500D01*
X140213500Y-109836500D01*
X140213500Y-110363500D01*
G37*
X140213500Y-110486500D02*
X140213500Y-111013500D01*
X138736500Y-111013500D01*
X138736500Y-110486500D01*
X140213500Y-110486500D01*
G36*
X140213500Y-111013500D02*
G01*
X138736500Y-111013500D01*
X138736500Y-110486500D01*
X140213500Y-110486500D01*
X140213500Y-111013500D01*
G37*
X140213500Y-111136500D02*
X140213500Y-111663500D01*
X138736500Y-111663500D01*
X138736500Y-111136500D01*
X140213500Y-111136500D01*
G36*
X140213500Y-111663500D02*
G01*
X138736500Y-111663500D01*
X138736500Y-111136500D01*
X140213500Y-111136500D01*
X140213500Y-111663500D01*
G37*
D11*
X139894250Y-107600000D02*
G75*
G02*
X139105750Y-107600000I-394250J0D01*
G01*
X139105750Y-107600000D02*
G75*
G02*
X139894250Y-107600000I394250J0D01*
G01*
X139894250Y-112600000D02*
G75*
G02*
X139105750Y-112600000I-394250J0D01*
G01*
X139105750Y-112600000D02*
G75*
G02*
X139894250Y-112600000I394250J0D01*
G01*
D10*
X135786000Y-107864000D02*
X135786000Y-106500000D01*
X135787000Y-106471000D01*
X135790000Y-106441000D01*
X135793000Y-106412000D01*
X135799000Y-106383000D01*
X135806000Y-106354000D01*
X135814000Y-106326000D01*
X135824000Y-106298000D01*
X135835000Y-106271000D01*
X135848000Y-106244000D01*
X135862000Y-106218000D01*
X135877000Y-106193000D01*
X135894000Y-106169000D01*
X135912000Y-106145000D01*
X135931000Y-106123000D01*
X135952000Y-106102000D01*
X135973000Y-106081000D01*
X135995000Y-106062000D01*
X136019000Y-106044000D01*
X136043000Y-106027000D01*
X136068000Y-106012000D01*
X136094000Y-105998000D01*
X136121000Y-105985000D01*
X136148000Y-105974000D01*
X136176000Y-105964000D01*
X136204000Y-105956000D01*
X136233000Y-105949000D01*
X136262000Y-105943000D01*
X136291000Y-105940000D01*
X136321000Y-105937000D01*
X136350000Y-105937000D01*
X137250000Y-105937000D01*
X137279000Y-105937000D01*
X137309000Y-105940000D01*
X137338000Y-105943000D01*
X137367000Y-105949000D01*
X137396000Y-105956000D01*
X137424000Y-105964000D01*
X137452000Y-105974000D01*
X137479000Y-105985000D01*
X137506000Y-105998000D01*
X137532000Y-106012000D01*
X137557000Y-106027000D01*
X137581000Y-106044000D01*
X137605000Y-106062000D01*
X137627000Y-106081000D01*
X137648000Y-106102000D01*
X137669000Y-106123000D01*
X137688000Y-106145000D01*
X137706000Y-106169000D01*
X137723000Y-106193000D01*
X137738000Y-106218000D01*
X137752000Y-106244000D01*
X137765000Y-106271000D01*
X137776000Y-106298000D01*
X137786000Y-106326000D01*
X137794000Y-106354000D01*
X137801000Y-106383000D01*
X137807000Y-106412000D01*
X137810000Y-106441000D01*
X137813000Y-106471000D01*
X137813000Y-106500000D01*
X137813000Y-107864000D01*
X135786000Y-107864000D01*
G36*
X137309000Y-105940000D02*
G01*
X137338000Y-105943000D01*
X137367000Y-105949000D01*
X137396000Y-105956000D01*
X137424000Y-105964000D01*
X137452000Y-105974000D01*
X137479000Y-105985000D01*
X137506000Y-105998000D01*
X137532000Y-106012000D01*
X137557000Y-106027000D01*
X137581000Y-106044000D01*
X137605000Y-106062000D01*
X137627000Y-106081000D01*
X137648000Y-106102000D01*
X137669000Y-106123000D01*
X137688000Y-106145000D01*
X137706000Y-106169000D01*
X137723000Y-106193000D01*
X137738000Y-106218000D01*
X137752000Y-106244000D01*
X137765000Y-106271000D01*
X137776000Y-106298000D01*
X137786000Y-106326000D01*
X137794000Y-106354000D01*
X137801000Y-106383000D01*
X137807000Y-106412000D01*
X137810000Y-106441000D01*
X137813000Y-106471000D01*
X137813000Y-106500000D01*
X137813000Y-107864000D01*
X135786000Y-107864000D01*
X135786000Y-106500000D01*
X135787000Y-106471000D01*
X135790000Y-106441000D01*
X135793000Y-106412000D01*
X135799000Y-106383000D01*
X135806000Y-106354000D01*
X135814000Y-106326000D01*
X135824000Y-106298000D01*
X135835000Y-106271000D01*
X135848000Y-106244000D01*
X135862000Y-106218000D01*
X135877000Y-106193000D01*
X135894000Y-106169000D01*
X135912000Y-106145000D01*
X135931000Y-106123000D01*
X135952000Y-106102000D01*
X135973000Y-106081000D01*
X135995000Y-106062000D01*
X136019000Y-106044000D01*
X136043000Y-106027000D01*
X136068000Y-106012000D01*
X136094000Y-105998000D01*
X136121000Y-105985000D01*
X136148000Y-105974000D01*
X136176000Y-105964000D01*
X136204000Y-105956000D01*
X136233000Y-105949000D01*
X136262000Y-105943000D01*
X136291000Y-105940000D01*
X136321000Y-105937000D01*
X136350000Y-105937000D01*
X137250000Y-105937000D01*
X137279000Y-105937000D01*
X137309000Y-105940000D01*
G37*
X135786000Y-112336000D02*
X135786000Y-113700000D01*
X135787000Y-113729000D01*
X135790000Y-113759000D01*
X135793000Y-113788000D01*
X135799000Y-113817000D01*
X135806000Y-113846000D01*
X135814000Y-113874000D01*
X135824000Y-113902000D01*
X135835000Y-113929000D01*
X135848000Y-113956000D01*
X135862000Y-113982000D01*
X135877000Y-114007000D01*
X135894000Y-114031000D01*
X135912000Y-114055000D01*
X135931000Y-114077000D01*
X135952000Y-114098000D01*
X135973000Y-114119000D01*
X135995000Y-114138000D01*
X136019000Y-114156000D01*
X136043000Y-114173000D01*
X136068000Y-114188000D01*
X136094000Y-114202000D01*
X136121000Y-114215000D01*
X136148000Y-114226000D01*
X136176000Y-114236000D01*
X136204000Y-114244000D01*
X136233000Y-114251000D01*
X136262000Y-114257000D01*
X136291000Y-114260000D01*
X136321000Y-114263000D01*
X136350000Y-114263000D01*
X137250000Y-114263000D01*
X137279000Y-114263000D01*
X137309000Y-114260000D01*
X137338000Y-114257000D01*
X137367000Y-114251000D01*
X137396000Y-114244000D01*
X137424000Y-114236000D01*
X137452000Y-114226000D01*
X137479000Y-114215000D01*
X137506000Y-114202000D01*
X137532000Y-114188000D01*
X137557000Y-114173000D01*
X137581000Y-114156000D01*
X137605000Y-114138000D01*
X137627000Y-114119000D01*
X137648000Y-114098000D01*
X137669000Y-114077000D01*
X137688000Y-114055000D01*
X137706000Y-114031000D01*
X137723000Y-114007000D01*
X137738000Y-113982000D01*
X137752000Y-113956000D01*
X137765000Y-113929000D01*
X137776000Y-113902000D01*
X137786000Y-113874000D01*
X137794000Y-113846000D01*
X137801000Y-113817000D01*
X137807000Y-113788000D01*
X137810000Y-113759000D01*
X137813000Y-113729000D01*
X137813000Y-113700000D01*
X137813000Y-112336000D01*
X135786000Y-112336000D01*
G36*
X137813000Y-113700000D02*
G01*
X137813000Y-113729000D01*
X137810000Y-113759000D01*
X137807000Y-113788000D01*
X137801000Y-113817000D01*
X137794000Y-113846000D01*
X137786000Y-113874000D01*
X137776000Y-113902000D01*
X137765000Y-113929000D01*
X137752000Y-113956000D01*
X137738000Y-113982000D01*
X137723000Y-114007000D01*
X137706000Y-114031000D01*
X137688000Y-114055000D01*
X137669000Y-114077000D01*
X137648000Y-114098000D01*
X137627000Y-114119000D01*
X137605000Y-114138000D01*
X137581000Y-114156000D01*
X137557000Y-114173000D01*
X137532000Y-114188000D01*
X137506000Y-114202000D01*
X137479000Y-114215000D01*
X137452000Y-114226000D01*
X137424000Y-114236000D01*
X137396000Y-114244000D01*
X137367000Y-114251000D01*
X137338000Y-114257000D01*
X137309000Y-114260000D01*
X137279000Y-114263000D01*
X137250000Y-114263000D01*
X136350000Y-114263000D01*
X136321000Y-114263000D01*
X136291000Y-114260000D01*
X136262000Y-114257000D01*
X136233000Y-114251000D01*
X136204000Y-114244000D01*
X136176000Y-114236000D01*
X136148000Y-114226000D01*
X136121000Y-114215000D01*
X136094000Y-114202000D01*
X136068000Y-114188000D01*
X136043000Y-114173000D01*
X136019000Y-114156000D01*
X135995000Y-114138000D01*
X135973000Y-114119000D01*
X135952000Y-114098000D01*
X135931000Y-114077000D01*
X135912000Y-114055000D01*
X135894000Y-114031000D01*
X135877000Y-114007000D01*
X135862000Y-113982000D01*
X135848000Y-113956000D01*
X135835000Y-113929000D01*
X135824000Y-113902000D01*
X135814000Y-113874000D01*
X135806000Y-113846000D01*
X135799000Y-113817000D01*
X135793000Y-113788000D01*
X135790000Y-113759000D01*
X135787000Y-113729000D01*
X135786000Y-113700000D01*
X135786000Y-112336000D01*
X137813000Y-112336000D01*
X137813000Y-113700000D01*
G37*
X137813500Y-108286500D02*
X137813500Y-109913500D01*
X135786500Y-109913500D01*
X135786500Y-108286500D01*
X137813500Y-108286500D01*
G36*
X137813500Y-109913500D02*
G01*
X135786500Y-109913500D01*
X135786500Y-108286500D01*
X137813500Y-108286500D01*
X137813500Y-109913500D01*
G37*
X137813500Y-110286500D02*
X137813500Y-111913500D01*
X135786500Y-111913500D01*
X135786500Y-110286500D01*
X137813500Y-110286500D01*
G36*
X137813500Y-111913500D02*
G01*
X135786500Y-111913500D01*
X135786500Y-110286500D01*
X137813500Y-110286500D01*
X137813500Y-111913500D01*
G37*
%TD*%
D12*
%TO.C,R2*%
X150012500Y-114600000D03*
X148187500Y-114600000D03*
%TD*%
D13*
%TO.C,R1*%
X162387500Y-114500000D03*
X164212500Y-114500000D03*
%TD*%
D14*
%TO.C,J6*%
X146900000Y-119700000D03*
%TD*%
%TO.C,J5*%
X158000000Y-108400000D03*
%TD*%
%TO.C,J4*%
X153295000Y-108385000D03*
%TD*%
%TO.C,J3*%
X148600000Y-108500000D03*
%TD*%
%TO.C,J2*%
X170840000Y-109420000D03*
D15*
X168300000Y-109420000D03*
X170840000Y-111960000D03*
X168300000Y-111960000D03*
X170840000Y-114500000D03*
X168300000Y-114500000D03*
%TD*%
D16*
%TO.C,D2*%
X152662500Y-114400000D03*
X154537500Y-114400000D03*
%TD*%
D17*
%TO.C,D1*%
X159637500Y-114300000D03*
X157762500Y-114300000D03*
%TD*%
M02*
