%TF.GenerationSoftware,KiCad,Pcbnew,10.0.5*%
%TF.CreationDate,2026-10-03T23:49:39+05:30*%
%TF.ProjectId,Echo Debug,4563686f-2044-4656-9275-672e6b696361,rev?*%
%TF.SameCoordinates,Original*%
%TF.FileFunction,Copper,L1,Top*%
%TF.FilePolarity,Positive*%
%FSLAX46Y46*%
G04 Gerber Fmt 4.6, Leading zero omitted, Abs format (unit mm)*
G04 Created by KiCad (PCBNEW 10.0.5) date 2026-10-03 23:49:39*
%MOMM*%
%LPD*%
G01*
G04 APERTURE LIST*
G04 Aperture macros list*
%AMRoundRect*
0 Rectangle with rounded corners*
0 $1 Rounding radius*
0 $2 $3 $4 $5 $6 $7 $8 $9 X,Y pos of 4 corners*
0 Add a 4 corners polygon primitive as box body*
4,1,4,$2,$3,$4,$5,$6,$7,$8,$9,$2,$3,0*
0 Add four circle primitives for the rounded corners*
1,1,$1+$1,$2,$3*
1,1,$1+$1,$4,$5*
1,1,$1+$1,$6,$7*
1,1,$1+$1,$8,$9*
0 Add four rect primitives between the rounded corners*
20,1,$1+$1,$2,$3,$4,$5,0*
20,1,$1+$1,$4,$5,$6,$7,0*
20,1,$1+$1,$6,$7,$8,$9,0*
20,1,$1+$1,$8,$9,$2,$3,0*%
%AMFreePoly0*
4,1,123,1.203536,0.953536,1.205000,0.950000,1.205000,-0.950000,1.203536,-0.953536,1.200000,-0.955000,-0.100000,-0.955000,-0.100192,-0.954996,-0.126192,-0.953996,-0.126383,-0.953985,-0.152383,-0.951985,-0.152573,-0.951967,-0.178573,-0.948967,-0.178944,-0.948910,-0.204944,-0.943910,-0.205167,-0.943862,-0.230167,-0.937862,-0.230300,-0.937828,-0.256300,-0.930828,-0.256756,-0.930682,-0.280756,-0.921682,
-0.280923,-0.921615,-0.304923,-0.911615,-0.305083,-0.911545,-0.329083,-0.900545,-0.329460,-0.900353,-0.352460,-0.887353,-0.352684,-0.887218,-0.396684,-0.859218,-0.397030,-0.858977,-0.418030,-0.842977,-0.418238,-0.842810,-0.438238,-0.825810,-0.438439,-0.825630,-0.457439,-0.807630,-0.457630,-0.807439,-0.475630,-0.788439,-0.475810,-0.788238,-0.492810,-0.768238,-0.492977,-0.768030,-0.508977,-0.747030,
-0.509218,-0.746684,-0.537218,-0.702684,-0.537353,-0.702460,-0.550353,-0.679460,-0.550545,-0.679083,-0.561545,-0.655083,-0.561615,-0.654923,-0.571615,-0.630923,-0.571682,-0.630756,-0.580682,-0.606756,-0.580828,-0.606300,-0.587828,-0.580300,-0.587862,-0.580167,-0.593862,-0.555167,-0.593910,-0.554944,-0.598910,-0.528944,-0.598967,-0.528573,-0.601967,-0.502573,-0.601985,-0.502383,-0.603985,-0.476383,
-0.603996,-0.476192,-0.604996,-0.450192,-0.605000,-0.450000,-0.605000,0.450000,-0.604996,0.450192,-0.603996,0.476192,-0.603985,0.476383,-0.601985,0.502383,-0.601967,0.502573,-0.598967,0.528573,-0.598910,0.528944,-0.593910,0.554944,-0.593862,0.555167,-0.587862,0.580167,-0.587828,0.580300,-0.580828,0.606300,-0.580682,0.606756,-0.571682,0.630756,-0.571615,0.630923,-0.561615,0.654923,
-0.561545,0.655083,-0.550545,0.679083,-0.550353,0.679460,-0.537353,0.702460,-0.537218,0.702684,-0.509218,0.746684,-0.508977,0.747030,-0.492977,0.768030,-0.492810,0.768238,-0.475810,0.788238,-0.475630,0.788439,-0.457630,0.807439,-0.457439,0.807630,-0.438439,0.825630,-0.438238,0.825810,-0.418238,0.842810,-0.418030,0.842977,-0.397030,0.858977,-0.396684,0.859218,-0.352684,0.887218,
-0.352460,0.887353,-0.329460,0.900353,-0.329083,0.900545,-0.305083,0.911545,-0.304923,0.911615,-0.280923,0.921615,-0.280756,0.921682,-0.256756,0.930682,-0.256300,0.930828,-0.230300,0.937828,-0.230167,0.937862,-0.205167,0.943862,-0.204944,0.943910,-0.178944,0.948910,-0.178573,0.948967,-0.152573,0.951967,-0.152383,0.951985,-0.126383,0.953985,-0.126192,0.953996,-0.100192,0.954996,
-0.100000,0.955000,1.200000,0.955000,1.203536,0.953536,1.203536,0.953536,$1*%
%AMFreePoly1*
4,1,123,0.100192,0.954996,0.126192,0.953996,0.126383,0.953985,0.152383,0.951985,0.152573,0.951967,0.178573,0.948967,0.178944,0.948910,0.204944,0.943910,0.205167,0.943862,0.230167,0.937862,0.230300,0.937828,0.256300,0.930828,0.256756,0.930682,0.280756,0.921682,0.280923,0.921615,0.304923,0.911615,0.305083,0.911545,0.329083,0.900545,0.329460,0.900353,0.352460,0.887353,
0.352684,0.887218,0.396684,0.859218,0.397030,0.858977,0.418030,0.842977,0.418238,0.842810,0.438238,0.825810,0.438439,0.825630,0.457439,0.807630,0.457630,0.807439,0.475630,0.788439,0.475810,0.788238,0.492810,0.768238,0.492977,0.768030,0.508977,0.747030,0.509218,0.746684,0.537218,0.702684,0.537353,0.702460,0.550353,0.679460,0.550545,0.679083,0.561545,0.655083,
0.561615,0.654923,0.571615,0.630923,0.571682,0.630756,0.580682,0.606756,0.580828,0.606300,0.587828,0.580300,0.587862,0.580167,0.593862,0.555167,0.593910,0.554944,0.598910,0.528944,0.598967,0.528573,0.601967,0.502573,0.601985,0.502383,0.603985,0.476383,0.603996,0.476192,0.604996,0.450192,0.605000,0.450000,0.605000,-0.450000,0.604996,-0.450192,0.603996,-0.476192,
0.603985,-0.476383,0.601985,-0.502383,0.601967,-0.502573,0.598967,-0.528573,0.598910,-0.528944,0.593910,-0.554944,0.593862,-0.555167,0.587862,-0.580167,0.587828,-0.580300,0.580828,-0.606300,0.580682,-0.606756,0.571682,-0.630756,0.571615,-0.630923,0.561615,-0.654923,0.561545,-0.655083,0.550545,-0.679083,0.550353,-0.679460,0.537353,-0.702460,0.537218,-0.702684,0.509218,-0.746684,
0.508977,-0.747030,0.492977,-0.768030,0.492810,-0.768238,0.475810,-0.788238,0.475630,-0.788439,0.457630,-0.807439,0.457439,-0.807630,0.438439,-0.825630,0.438238,-0.825810,0.418238,-0.842810,0.418030,-0.842977,0.397030,-0.858977,0.396684,-0.859218,0.352684,-0.887218,0.352460,-0.887353,0.329460,-0.900353,0.329083,-0.900545,0.305083,-0.911545,0.304923,-0.911615,0.280923,-0.921615,
0.280756,-0.921682,0.256756,-0.930682,0.256300,-0.930828,0.230300,-0.937828,0.230167,-0.937862,0.205167,-0.943862,0.204944,-0.943910,0.178944,-0.948910,0.178573,-0.948967,0.152573,-0.951967,0.152383,-0.951985,0.126383,-0.953985,0.126192,-0.953996,0.100192,-0.954996,0.100000,-0.955000,-1.200000,-0.955000,-1.203536,-0.953536,-1.205000,-0.950000,-1.205000,0.950000,-1.203536,0.953536,
-1.200000,0.955000,0.100000,0.955000,0.100192,0.954996,0.100192,0.954996,$1*%
G04 Aperture macros list end*
%TA.AperFunction,SMDPad,CuDef*%
%ADD10RoundRect,0.250000X0.262500X0.450000X-0.262500X0.450000X-0.262500X-0.450000X0.262500X-0.450000X0*%
%TD*%
%TA.AperFunction,SMDPad,CuDef*%
%ADD11RoundRect,0.250000X-0.262500X-0.450000X0.262500X-0.450000X0.262500X0.450000X-0.262500X0.450000X0*%
%TD*%
%TA.AperFunction,SMDPad,CuDef*%
%ADD12R,1.350000X0.400000*%
%TD*%
%TA.AperFunction,ComponentPad*%
%ADD13C,1.450000*%
%TD*%
%TA.AperFunction,ComponentPad*%
%ADD14FreePoly0,270.000000*%
%TD*%
%TA.AperFunction,SMDPad,CuDef*%
%ADD15R,1.900000X1.500000*%
%TD*%
%TA.AperFunction,ComponentPad*%
%ADD16FreePoly1,270.000000*%
%TD*%
%TA.AperFunction,ComponentPad*%
%ADD17R,1.700000X1.700000*%
%TD*%
%TA.AperFunction,ComponentPad*%
%ADD18C,1.700000*%
%TD*%
%TA.AperFunction,SMDPad,CuDef*%
%ADD19RoundRect,0.243750X-0.243750X-0.456250X0.243750X-0.456250X0.243750X0.456250X-0.243750X0.456250X0*%
%TD*%
%TA.AperFunction,SMDPad,CuDef*%
%ADD20RoundRect,0.243750X0.243750X0.456250X-0.243750X0.456250X-0.243750X-0.456250X0.243750X-0.456250X0*%
%TD*%
%TA.AperFunction,ViaPad*%
%ADD21C,0.600000*%
%TD*%
%TA.AperFunction,Conductor*%
%ADD22C,0.200000*%
%TD*%
G04 APERTURE END LIST*
D10*
%TO.P,R2,1*%
%TO.N,Net-(D2-K)*%
X150012500Y-114600000D03*
%TO.P,R2,2*%
%TO.N,GND*%
X148187500Y-114600000D03*
%TD*%
D11*
%TO.P,R1,1*%
%TO.N,Net-(D1-K)*%
X162387500Y-114500000D03*
%TO.P,R1,2*%
%TO.N,GND*%
X164212500Y-114500000D03*
%TD*%
D12*
%TO.P,J7,1,VBUS_1*%
%TO.N,VBUS*%
X139475000Y-108800000D03*
%TO.P,J7,2,D-_2*%
%TO.N,/ED-*%
X139475000Y-109450000D03*
%TO.P,J7,3,D+_3*%
%TO.N,/ED+*%
X139475000Y-110100000D03*
%TO.P,J7,4,ID_4*%
%TO.N,unconnected-(J7-ID-Pad4)*%
X139475000Y-110750000D03*
%TO.P,J7,5,GND_5*%
%TO.N,GND*%
X139475000Y-111400000D03*
D13*
%TO.P,J7,SH1,SHIELD1_SH1*%
%TO.N,unconnected-(J7-SHIELD1-PadSH1)*%
X139500000Y-107600000D03*
%TO.P,J7,SH2,SHIELD2_SH2*%
%TO.N,unconnected-(J7-SHIELD2-PadSH2)*%
X139500000Y-112600000D03*
D14*
%TO.P,J7,SH3,SHIELD3_SH3*%
%TO.N,unconnected-(J7-SHIELD3-PadSH3)*%
X136800000Y-106600000D03*
D15*
%TO.P,J7,SH4,SHIELD4_SH4*%
%TO.N,unconnected-(J7-SHIELD4-PadSH4)*%
X136800000Y-109100000D03*
%TO.P,J7,SH5,SHIELD5_SH5*%
%TO.N,unconnected-(J7-SHIELD5-PadSH5)*%
X136800000Y-111100000D03*
D16*
%TO.P,J7,SH6,SHIELD6_SH6*%
%TO.N,unconnected-(J7-SHIELD6-PadSH6)*%
X136800000Y-113600000D03*
%TD*%
D17*
%TO.P,J6,1,Pin_1_1*%
%TO.N,GND*%
X146900000Y-119700000D03*
%TD*%
%TO.P,J5,1,Pin_1_1*%
%TO.N,+12V*%
X158000000Y-108400000D03*
%TD*%
%TO.P,J4,1,Pin_1_1*%
%TO.N,+12V*%
X153295000Y-108385000D03*
%TD*%
%TO.P,J3,1,Pin_1_1*%
%TO.N,VBUS*%
X148600000Y-108500000D03*
%TD*%
%TO.P,J2,1,Pin_1_1*%
%TO.N,+12V*%
X170840000Y-109420000D03*
D18*
%TO.P,J2,2,Pin_2_2*%
%TO.N,GND*%
X168300000Y-109420000D03*
%TO.P,J2,3,Pin_3_3*%
%TO.N,+12V*%
X170840000Y-111960000D03*
%TO.P,J2,4,Pin_4_4*%
%TO.N,/ED+*%
X168300000Y-111960000D03*
%TO.P,J2,5,Pin_5_5*%
%TO.N,/ED-*%
X170840000Y-114500000D03*
%TO.P,J2,6,Pin_6_6*%
%TO.N,GND*%
X168300000Y-114500000D03*
%TD*%
D19*
%TO.P,D2,1,K_1*%
%TO.N,Net-(D2-K)*%
X152662500Y-114400000D03*
%TO.P,D2,2,A_2*%
%TO.N,+12V*%
X154537500Y-114400000D03*
%TD*%
D20*
%TO.P,D1,1,K_1*%
%TO.N,Net-(D1-K)*%
X159637500Y-114300000D03*
%TO.P,D1,2,A_2*%
%TO.N,+12V*%
X157762500Y-114300000D03*
%TD*%
D21*
%TO.N,+12V*%
X158000000Y-110900000D03*
%TO.N,/ED-*%
X143200000Y-109500000D03*
%TO.N,GND*%
X166100000Y-118000000D03*
X143000000Y-113200000D03*
X146500000Y-113900000D03*
%TD*%
%TO.N,+12V*%
D22*
X157762500Y-114300000D02*
X157762500Y-111137500D01*
X157762500Y-111137500D02*
X158000000Y-110900000D01*
%TO.N,/ED-*%
X143150000Y-109450000D02*
X143200000Y-109500000D01*
X139475000Y-109450000D02*
X143150000Y-109450000D01*
%TO.N,+12V*%
X157985000Y-108385000D02*
X158000000Y-108400000D01*
X153295000Y-108385000D02*
X157985000Y-108385000D01*
%TO.N,GND*%
X151587500Y-118000000D02*
X148187500Y-114600000D01*
X166100000Y-118000000D02*
X151587500Y-118000000D01*
X144300000Y-117100000D02*
X146500000Y-114900000D01*
X144300000Y-118700000D02*
X144300000Y-117100000D01*
X146500000Y-114900000D02*
X146500000Y-113900000D01*
X145300000Y-119700000D02*
X144300000Y-118700000D01*
X146900000Y-119700000D02*
X145300000Y-119700000D01*
X143700000Y-113900000D02*
X146500000Y-113900000D01*
X143000000Y-113200000D02*
X143700000Y-113900000D01*
%TO.N,/ED+*%
X166440000Y-110100000D02*
X168300000Y-111960000D01*
X139475000Y-110100000D02*
X166440000Y-110100000D01*
%TO.N,GND*%
X169690000Y-111110000D02*
X169690000Y-113110000D01*
X169700000Y-111100000D02*
X169690000Y-111110000D01*
X169700000Y-110820000D02*
X169700000Y-111100000D01*
X169690000Y-113110000D02*
X168300000Y-114500000D01*
X168300000Y-109420000D02*
X169700000Y-110820000D01*
%TO.N,+12V*%
X159700000Y-106700000D02*
X158000000Y-108400000D01*
X169500000Y-106700000D02*
X159700000Y-106700000D01*
X170840000Y-108040000D02*
X169500000Y-106700000D01*
X170840000Y-109420000D02*
X170840000Y-108040000D01*
X170840000Y-111960000D02*
X170840000Y-109420000D01*
%TO.N,GND*%
X168900000Y-115100000D02*
X168300000Y-114500000D01*
X168900000Y-117500000D02*
X168900000Y-115100000D01*
X168400000Y-118000000D02*
X168900000Y-117500000D01*
X166100000Y-118000000D02*
X168400000Y-118000000D01*
X165200000Y-118000000D02*
X166100000Y-118000000D01*
X164212500Y-117012500D02*
X165200000Y-118000000D01*
X164212500Y-114500000D02*
X164212500Y-117012500D01*
%TO.N,Net-(D1-K)*%
X162187500Y-114300000D02*
X162387500Y-114500000D01*
X159637500Y-114300000D02*
X162187500Y-114300000D01*
%TO.N,+12V*%
X154637500Y-114300000D02*
X154537500Y-114400000D01*
X157762500Y-114300000D02*
X154637500Y-114300000D01*
%TO.N,Net-(D2-K)*%
X152462500Y-114600000D02*
X152662500Y-114400000D01*
X150012500Y-114600000D02*
X152462500Y-114600000D01*
%TO.N,GND*%
X141200000Y-111400000D02*
X143000000Y-113200000D01*
X139475000Y-111400000D02*
X141200000Y-111400000D01*
X147200000Y-114600000D02*
X146500000Y-113900000D01*
X148187500Y-114600000D02*
X147200000Y-114600000D01*
%TO.N,VBUS*%
X139475000Y-108800000D02*
X148300000Y-108800000D01*
X148300000Y-108800000D02*
X148600000Y-108500000D01*
%TD*%
%TA.AperFunction,Conductor*%
%TO.N,GND*%
G36*
X169641444Y-112613999D02*
G01*
X169680486Y-112659056D01*
X169684951Y-112667820D01*
X169809890Y-112839786D01*
X169960213Y-112990109D01*
X170132182Y-113115050D01*
X170140946Y-113119516D01*
X170191742Y-113167491D01*
X170208536Y-113235312D01*
X170185998Y-113301447D01*
X170140946Y-113340484D01*
X170132182Y-113344949D01*
X169960213Y-113469890D01*
X169809890Y-113620213D01*
X169684949Y-113792182D01*
X169680202Y-113801499D01*
X169632227Y-113852293D01*
X169564405Y-113869087D01*
X169498271Y-113846548D01*
X169459234Y-113801495D01*
X169454626Y-113792452D01*
X169415270Y-113738282D01*
X169415269Y-113738282D01*
X168782962Y-114370590D01*
X168765925Y-114307007D01*
X168700099Y-114192993D01*
X168607007Y-114099901D01*
X168492993Y-114034075D01*
X168429409Y-114017037D01*
X169061716Y-113384728D01*
X169007547Y-113345373D01*
X169007547Y-113345372D01*
X168998500Y-113340763D01*
X168947706Y-113292788D01*
X168930912Y-113224966D01*
X168953451Y-113158832D01*
X168998508Y-113119793D01*
X169007816Y-113115051D01*
X169087007Y-113057515D01*
X169179786Y-112990109D01*
X169179788Y-112990106D01*
X169179792Y-112990104D01*
X169330104Y-112839792D01*
X169330106Y-112839788D01*
X169330109Y-112839786D01*
X169455048Y-112667820D01*
X169455047Y-112667820D01*
X169455051Y-112667816D01*
X169459514Y-112659054D01*
X169507488Y-112608259D01*
X169575308Y-112591463D01*
X169641444Y-112613999D01*
G37*
%TD.AperFunction*%
%TA.AperFunction,Conductor*%
G36*
X169453181Y-110219628D02*
G01*
X169486666Y-110280951D01*
X169489500Y-110307300D01*
X169489500Y-110317865D01*
X169489501Y-110317876D01*
X169495908Y-110377483D01*
X169546202Y-110512328D01*
X169546206Y-110512335D01*
X169632452Y-110627544D01*
X169632455Y-110627547D01*
X169747664Y-110713793D01*
X169747671Y-110713797D01*
X169879082Y-110762810D01*
X169935016Y-110804681D01*
X169959433Y-110870145D01*
X169944582Y-110938418D01*
X169923431Y-110966673D01*
X169809889Y-111080215D01*
X169684949Y-111252182D01*
X169680484Y-111260946D01*
X169632509Y-111311742D01*
X169564688Y-111328536D01*
X169498553Y-111305998D01*
X169459516Y-111260946D01*
X169455050Y-111252182D01*
X169330109Y-111080213D01*
X169179786Y-110929890D01*
X169007817Y-110804949D01*
X168998504Y-110800204D01*
X168947707Y-110752230D01*
X168930912Y-110684409D01*
X168953449Y-110618274D01*
X168998507Y-110579232D01*
X169007555Y-110574622D01*
X169061716Y-110535270D01*
X169061717Y-110535270D01*
X168429408Y-109902962D01*
X168492993Y-109885925D01*
X168607007Y-109820099D01*
X168700099Y-109727007D01*
X168765925Y-109612993D01*
X168782962Y-109549409D01*
X169453181Y-110219628D01*
G37*
%TD.AperFunction*%
%TA.AperFunction,Conductor*%
G36*
X169266942Y-107320185D02*
G01*
X169287584Y-107336819D01*
X169851077Y-107900312D01*
X169884562Y-107961635D01*
X169879578Y-108031327D01*
X169837706Y-108087260D01*
X169806730Y-108104175D01*
X169747670Y-108126203D01*
X169747664Y-108126206D01*
X169632455Y-108212452D01*
X169632452Y-108212455D01*
X169546206Y-108327664D01*
X169546202Y-108327671D01*
X169495908Y-108462517D01*
X169489501Y-108522116D01*
X169489501Y-108522123D01*
X169489500Y-108522135D01*
X169489500Y-108532690D01*
X169469815Y-108599729D01*
X169453181Y-108620371D01*
X168782962Y-109290590D01*
X168765925Y-109227007D01*
X168700099Y-109112993D01*
X168607007Y-109019901D01*
X168492993Y-108954075D01*
X168429409Y-108937037D01*
X169061716Y-108304728D01*
X169007550Y-108265375D01*
X168818217Y-108168904D01*
X168616129Y-108103242D01*
X168406246Y-108070000D01*
X168193754Y-108070000D01*
X167983872Y-108103242D01*
X167983869Y-108103242D01*
X167781782Y-108168904D01*
X167592439Y-108265380D01*
X167538282Y-108304727D01*
X167538282Y-108304728D01*
X168170591Y-108937037D01*
X168107007Y-108954075D01*
X167992993Y-109019901D01*
X167899901Y-109112993D01*
X167834075Y-109227007D01*
X167817037Y-109290591D01*
X167184728Y-108658282D01*
X167184727Y-108658282D01*
X167145380Y-108712439D01*
X167048904Y-108901782D01*
X166983242Y-109103869D01*
X166983242Y-109103872D01*
X166950000Y-109313753D01*
X166950000Y-109486276D01*
X166930315Y-109553315D01*
X166877511Y-109599070D01*
X166808353Y-109609014D01*
X166764001Y-109593664D01*
X166721904Y-109569360D01*
X166721904Y-109569359D01*
X166721900Y-109569358D01*
X166671785Y-109540423D01*
X166519057Y-109499499D01*
X166360943Y-109499499D01*
X166353347Y-109499499D01*
X166353331Y-109499500D01*
X159466868Y-109499500D01*
X159399829Y-109479815D01*
X159354074Y-109427011D01*
X159343579Y-109362244D01*
X159344447Y-109354174D01*
X159350500Y-109297873D01*
X159350499Y-107950096D01*
X159370184Y-107883058D01*
X159386818Y-107862416D01*
X159912416Y-107336819D01*
X159973739Y-107303334D01*
X160000097Y-107300500D01*
X169199903Y-107300500D01*
X169266942Y-107320185D01*
G37*
%TD.AperFunction*%
%TA.AperFunction,Conductor*%
G36*
X175042539Y-100420185D02*
G01*
X175088294Y-100472989D01*
X175099500Y-100524500D01*
X175099500Y-122175500D01*
X175079815Y-122242539D01*
X175027011Y-122288294D01*
X174975500Y-122299500D01*
X130824500Y-122299500D01*
X130757461Y-122279815D01*
X130711706Y-122227011D01*
X130700500Y-122175500D01*
X130700500Y-118802155D01*
X145550000Y-118802155D01*
X145550000Y-119450000D01*
X146466988Y-119450000D01*
X146434075Y-119507007D01*
X146400000Y-119634174D01*
X146400000Y-119765826D01*
X146434075Y-119892993D01*
X146466988Y-119950000D01*
X145550000Y-119950000D01*
X145550000Y-120597844D01*
X145556401Y-120657372D01*
X145556403Y-120657379D01*
X145606645Y-120792086D01*
X145606649Y-120792093D01*
X145692809Y-120907187D01*
X145692812Y-120907190D01*
X145807906Y-120993350D01*
X145807913Y-120993354D01*
X145942620Y-121043596D01*
X145942627Y-121043598D01*
X146002155Y-121049999D01*
X146002172Y-121050000D01*
X146650000Y-121050000D01*
X146650000Y-120133012D01*
X146707007Y-120165925D01*
X146834174Y-120200000D01*
X146965826Y-120200000D01*
X147092993Y-120165925D01*
X147150000Y-120133012D01*
X147150000Y-121050000D01*
X147797828Y-121050000D01*
X147797844Y-121049999D01*
X147857372Y-121043598D01*
X147857379Y-121043596D01*
X147992086Y-120993354D01*
X147992093Y-120993350D01*
X148107187Y-120907190D01*
X148107190Y-120907187D01*
X148193350Y-120792093D01*
X148193354Y-120792086D01*
X148243596Y-120657379D01*
X148243598Y-120657372D01*
X148249999Y-120597844D01*
X148250000Y-120597827D01*
X148250000Y-119950000D01*
X147333012Y-119950000D01*
X147365925Y-119892993D01*
X147400000Y-119765826D01*
X147400000Y-119634174D01*
X147365925Y-119507007D01*
X147333012Y-119450000D01*
X148250000Y-119450000D01*
X148250000Y-118802172D01*
X148249999Y-118802155D01*
X148243598Y-118742627D01*
X148243596Y-118742620D01*
X148193354Y-118607913D01*
X148193350Y-118607906D01*
X148107190Y-118492812D01*
X148107187Y-118492809D01*
X147992093Y-118406649D01*
X147992086Y-118406645D01*
X147857379Y-118356403D01*
X147857372Y-118356401D01*
X147797844Y-118350000D01*
X147150000Y-118350000D01*
X147150000Y-119266988D01*
X147092993Y-119234075D01*
X146965826Y-119200000D01*
X146834174Y-119200000D01*
X146707007Y-119234075D01*
X146650000Y-119266988D01*
X146650000Y-118350000D01*
X146002155Y-118350000D01*
X145942627Y-118356401D01*
X145942620Y-118356403D01*
X145807913Y-118406645D01*
X145807906Y-118406649D01*
X145692812Y-118492809D01*
X145692809Y-118492812D01*
X145606649Y-118607906D01*
X145606645Y-118607913D01*
X145556403Y-118742620D01*
X145556401Y-118742627D01*
X145550000Y-118802155D01*
X130700500Y-118802155D01*
X130700500Y-115099986D01*
X147175001Y-115099986D01*
X147185494Y-115202697D01*
X147240641Y-115369119D01*
X147240643Y-115369124D01*
X147332684Y-115518345D01*
X147456654Y-115642315D01*
X147605875Y-115734356D01*
X147605880Y-115734358D01*
X147772302Y-115789505D01*
X147772309Y-115789506D01*
X147875019Y-115799999D01*
X147937499Y-115799998D01*
X147937500Y-115799998D01*
X147937500Y-114850000D01*
X147175001Y-114850000D01*
X147175001Y-115099986D01*
X130700500Y-115099986D01*
X130700500Y-106500011D01*
X135334500Y-106500011D01*
X135334500Y-107800002D01*
X135337397Y-107854043D01*
X135372978Y-107993444D01*
X135372981Y-107993452D01*
X135375908Y-108000519D01*
X135375909Y-108000521D01*
X135390514Y-108027268D01*
X135405366Y-108095541D01*
X135397864Y-108130028D01*
X135355908Y-108242517D01*
X135349501Y-108302116D01*
X135349500Y-108302135D01*
X135349500Y-109897870D01*
X135349501Y-109897876D01*
X135355909Y-109957484D01*
X135392901Y-110056668D01*
X135397885Y-110126360D01*
X135392901Y-110143332D01*
X135355909Y-110242514D01*
X135355908Y-110242516D01*
X135349501Y-110302116D01*
X135349500Y-110302135D01*
X135349500Y-111897870D01*
X135349501Y-111897876D01*
X135355909Y-111957484D01*
X135398316Y-112071186D01*
X135403300Y-112140877D01*
X135388777Y-112177789D01*
X135375910Y-112199474D01*
X135372981Y-112206547D01*
X135372973Y-112206568D01*
X135354976Y-112257582D01*
X135334500Y-112400001D01*
X135334500Y-113699988D01*
X135334583Y-113709204D01*
X135334590Y-113709547D01*
X135334882Y-113719895D01*
X135335877Y-113745766D01*
X135336341Y-113755418D01*
X135336355Y-113755668D01*
X135337019Y-113765555D01*
X135339020Y-113791573D01*
X135339918Y-113801859D01*
X135339957Y-113802256D01*
X135340892Y-113811037D01*
X135343901Y-113837112D01*
X135346427Y-113855897D01*
X135346538Y-113856623D01*
X135349777Y-113875361D01*
X135354783Y-113901388D01*
X135356994Y-113912243D01*
X135357086Y-113912669D01*
X135357094Y-113912705D01*
X135359734Y-113924304D01*
X135365734Y-113949304D01*
X135367526Y-113956533D01*
X135367543Y-113956599D01*
X135367606Y-113956847D01*
X135369235Y-113963057D01*
X135376225Y-113989020D01*
X135383118Y-114012365D01*
X135383410Y-114013273D01*
X135391318Y-114035992D01*
X135400347Y-114060068D01*
X135403343Y-114067861D01*
X135403431Y-114068084D01*
X135407175Y-114077320D01*
X135417169Y-114101306D01*
X135420387Y-114108856D01*
X135420573Y-114109282D01*
X135424367Y-114117764D01*
X135424377Y-114117786D01*
X135435377Y-114141786D01*
X135444703Y-114161047D01*
X135444708Y-114161057D01*
X135445099Y-114161824D01*
X135455213Y-114180636D01*
X135455224Y-114180656D01*
X135468224Y-114203656D01*
X135474917Y-114215141D01*
X135474945Y-114215189D01*
X135475208Y-114215626D01*
X135482066Y-114226720D01*
X135510100Y-114270773D01*
X135522235Y-114288960D01*
X135522725Y-114289661D01*
X135534961Y-114306424D01*
X135550954Y-114327414D01*
X135550955Y-114327415D01*
X135559335Y-114338111D01*
X135559670Y-114338527D01*
X135568221Y-114348862D01*
X135585221Y-114368862D01*
X135593760Y-114378651D01*
X135593779Y-114378672D01*
X135594140Y-114379076D01*
X135603765Y-114389526D01*
X135621743Y-114408504D01*
X135626621Y-114413514D01*
X135631298Y-114418319D01*
X135631681Y-114418702D01*
X135636663Y-114423552D01*
X135641495Y-114428256D01*
X135660473Y-114446234D01*
X135670923Y-114455859D01*
X135670948Y-114455881D01*
X135671349Y-114456240D01*
X135681138Y-114464779D01*
X135701138Y-114481779D01*
X135711473Y-114490330D01*
X135711889Y-114490665D01*
X135722585Y-114499045D01*
X135743575Y-114515038D01*
X135760338Y-114527274D01*
X135761039Y-114527764D01*
X135779226Y-114539899D01*
X135823279Y-114567933D01*
X135834373Y-114574791D01*
X135834810Y-114575054D01*
X135834833Y-114575067D01*
X135834859Y-114575083D01*
X135846344Y-114581776D01*
X135869344Y-114594776D01*
X135869363Y-114594786D01*
X135888175Y-114604900D01*
X135888199Y-114604912D01*
X135888953Y-114605297D01*
X135908214Y-114614623D01*
X135932214Y-114625623D01*
X135936962Y-114627746D01*
X135940717Y-114629426D01*
X135941143Y-114629612D01*
X135948693Y-114632830D01*
X135948731Y-114632846D01*
X135972731Y-114642846D01*
X135981839Y-114646538D01*
X135982174Y-114646670D01*
X135989996Y-114649677D01*
X136013996Y-114658677D01*
X136036716Y-114666586D01*
X136037627Y-114666879D01*
X136037634Y-114666881D01*
X136060979Y-114673774D01*
X136060983Y-114673775D01*
X136086983Y-114680775D01*
X136093201Y-114682406D01*
X136093467Y-114682474D01*
X136100696Y-114684266D01*
X136125696Y-114690266D01*
X136137295Y-114692906D01*
X136137741Y-114693002D01*
X136148650Y-114695224D01*
X136164722Y-114698314D01*
X136174638Y-114700222D01*
X136174650Y-114700224D01*
X136193348Y-114703457D01*
X136194090Y-114703571D01*
X136212912Y-114706102D01*
X136238912Y-114709102D01*
X136247738Y-114710042D01*
X136248117Y-114710079D01*
X136248140Y-114710081D01*
X136258426Y-114710979D01*
X136258448Y-114710980D01*
X136258463Y-114710982D01*
X136284463Y-114712982D01*
X136294244Y-114713639D01*
X136294627Y-114713661D01*
X136304188Y-114714120D01*
X136304204Y-114714120D01*
X136304233Y-114714122D01*
X136330104Y-114715117D01*
X136330126Y-114715117D01*
X136330188Y-114715120D01*
X136340403Y-114715409D01*
X136340787Y-114715416D01*
X136350000Y-114715500D01*
X136350012Y-114715500D01*
X137249988Y-114715500D01*
X137250000Y-114715500D01*
X137259213Y-114715416D01*
X137259597Y-114715409D01*
X137269812Y-114715120D01*
X137269876Y-114715117D01*
X137269895Y-114715117D01*
X137295766Y-114714122D01*
X137295790Y-114714120D01*
X137295812Y-114714120D01*
X137305373Y-114713661D01*
X137305756Y-114713639D01*
X137315537Y-114712982D01*
X137341537Y-114710982D01*
X137341559Y-114710980D01*
X137341573Y-114710979D01*
X137347744Y-114710440D01*
X137351883Y-114710079D01*
X137352262Y-114710042D01*
X137361088Y-114709102D01*
X137387088Y-114706102D01*
X137405910Y-114703571D01*
X137406652Y-114703457D01*
X137425350Y-114700224D01*
X137425355Y-114700223D01*
X137425361Y-114700222D01*
X137429079Y-114699506D01*
X137451350Y-114695224D01*
X137462259Y-114693002D01*
X137462705Y-114692906D01*
X137474304Y-114690266D01*
X137499304Y-114684266D01*
X137506533Y-114682474D01*
X137506799Y-114682406D01*
X137513017Y-114680775D01*
X137519979Y-114678900D01*
X137519982Y-114678900D01*
X137529501Y-114676337D01*
X137539017Y-114673775D01*
X137562373Y-114666879D01*
X137563284Y-114666586D01*
X137586004Y-114658677D01*
X137610004Y-114649677D01*
X137617826Y-114646670D01*
X137618161Y-114646538D01*
X137627269Y-114642846D01*
X137651269Y-114632846D01*
X137653822Y-114631757D01*
X137658856Y-114629612D01*
X137658899Y-114629592D01*
X137658930Y-114629580D01*
X137659251Y-114629440D01*
X137667786Y-114625623D01*
X137691786Y-114614623D01*
X137711047Y-114605297D01*
X137711801Y-114604912D01*
X137711810Y-114604906D01*
X137711824Y-114604900D01*
X137717965Y-114601598D01*
X137730656Y-114594776D01*
X137753656Y-114581776D01*
X137765141Y-114575083D01*
X137765589Y-114574814D01*
X137776760Y-114567908D01*
X137820760Y-114539908D01*
X137838972Y-114527756D01*
X137839663Y-114527273D01*
X137856415Y-114515045D01*
X137877415Y-114499045D01*
X137888111Y-114490665D01*
X137888527Y-114490330D01*
X137898862Y-114481779D01*
X137918862Y-114464779D01*
X137928651Y-114456240D01*
X137929052Y-114455881D01*
X137939532Y-114446229D01*
X137958532Y-114428229D01*
X137968319Y-114418702D01*
X137968702Y-114418319D01*
X137978229Y-114408532D01*
X137996229Y-114389532D01*
X138005881Y-114379052D01*
X138006240Y-114378651D01*
X138014779Y-114368862D01*
X138031779Y-114348862D01*
X138040330Y-114338527D01*
X138040665Y-114338111D01*
X138049045Y-114327415D01*
X138065045Y-114306415D01*
X138077273Y-114289663D01*
X138077756Y-114288972D01*
X138089908Y-114270760D01*
X138117908Y-114226760D01*
X138124814Y-114215589D01*
X138125083Y-114215141D01*
X138131776Y-114203656D01*
X138144776Y-114180656D01*
X138154912Y-114161801D01*
X138155297Y-114161047D01*
X138164623Y-114141786D01*
X138175623Y-114117786D01*
X138179440Y-114109251D01*
X138179580Y-114108930D01*
X138182846Y-114101269D01*
X138183369Y-114100013D01*
X147175000Y-114100013D01*
X147175000Y-114350000D01*
X147937500Y-114350000D01*
X147937500Y-113400000D01*
X147937499Y-113399999D01*
X147875028Y-113400000D01*
X147875011Y-113400001D01*
X147772302Y-113410494D01*
X147605880Y-113465641D01*
X147605875Y-113465643D01*
X147456654Y-113557684D01*
X147332684Y-113681654D01*
X147240643Y-113830875D01*
X147240641Y-113830880D01*
X147185494Y-113997302D01*
X147185493Y-113997309D01*
X147175000Y-114100013D01*
X138183369Y-114100013D01*
X138192846Y-114077269D01*
X138196538Y-114068161D01*
X138196670Y-114067826D01*
X138199677Y-114060004D01*
X138208677Y-114036004D01*
X138216586Y-114013284D01*
X138216879Y-114012373D01*
X138223775Y-113989017D01*
X138230775Y-113963017D01*
X138232406Y-113956799D01*
X138232474Y-113956533D01*
X138234266Y-113949304D01*
X138240266Y-113924304D01*
X138242906Y-113912705D01*
X138243002Y-113912259D01*
X138245224Y-113901350D01*
X138250224Y-113875350D01*
X138253457Y-113856652D01*
X138253571Y-113855910D01*
X138256102Y-113837088D01*
X138259102Y-113811088D01*
X138260042Y-113802262D01*
X138260079Y-113801883D01*
X138260440Y-113797744D01*
X138260979Y-113791573D01*
X138260982Y-113791537D01*
X138262982Y-113765537D01*
X138263639Y-113755756D01*
X138263661Y-113755373D01*
X138264120Y-113745812D01*
X138264509Y-113735715D01*
X138265117Y-113719895D01*
X138265117Y-113719876D01*
X138265120Y-113719812D01*
X138265409Y-113709597D01*
X138265416Y-113709213D01*
X138265500Y-113700000D01*
X138265500Y-113367433D01*
X138285185Y-113300394D01*
X138337989Y-113254639D01*
X138407147Y-113244695D01*
X138470703Y-113273720D01*
X138489817Y-113294547D01*
X138501045Y-113310001D01*
X138555337Y-113384728D01*
X138565241Y-113398359D01*
X138701641Y-113534759D01*
X138857698Y-113648141D01*
X139029571Y-113735715D01*
X139213028Y-113795324D01*
X139403551Y-113825500D01*
X139403552Y-113825500D01*
X139596448Y-113825500D01*
X139596449Y-113825500D01*
X139786972Y-113795324D01*
X139970429Y-113735715D01*
X140142302Y-113648141D01*
X140298359Y-113534759D01*
X140434759Y-113398359D01*
X140548141Y-113242302D01*
X140635715Y-113070429D01*
X140695324Y-112886972D01*
X140725500Y-112696449D01*
X140725500Y-112503551D01*
X140695324Y-112313028D01*
X140635715Y-112129571D01*
X140566453Y-111993638D01*
X140553558Y-111924971D01*
X140577674Y-111863031D01*
X140593352Y-111842089D01*
X140643597Y-111707376D01*
X140643598Y-111707372D01*
X140649999Y-111647844D01*
X140650000Y-111647827D01*
X140650000Y-111600000D01*
X140489435Y-111600000D01*
X140422396Y-111580315D01*
X140376641Y-111527511D01*
X140366697Y-111458353D01*
X140395722Y-111394797D01*
X140415124Y-111376734D01*
X140452603Y-111348675D01*
X140507546Y-111307546D01*
X140550858Y-111249687D01*
X140606791Y-111207818D01*
X140649972Y-111200027D01*
X140650000Y-111200000D01*
X140650000Y-111152172D01*
X140649999Y-111152160D01*
X140643380Y-111090604D01*
X140643380Y-111064090D01*
X140644090Y-111057485D01*
X140644091Y-111057483D01*
X140650500Y-110997873D01*
X140650499Y-110824499D01*
X140670183Y-110757461D01*
X140722987Y-110711706D01*
X140774499Y-110700500D01*
X157075500Y-110700500D01*
X157142539Y-110720185D01*
X157188294Y-110772989D01*
X157199500Y-110824500D01*
X157199500Y-110902163D01*
X157195275Y-110934256D01*
X157161999Y-111058443D01*
X157161999Y-111226546D01*
X157162000Y-111226559D01*
X157162000Y-113120149D01*
X157142315Y-113187188D01*
X157103099Y-113225686D01*
X157053998Y-113255972D01*
X156930971Y-113379000D01*
X156839642Y-113527066D01*
X156839637Y-113527077D01*
X156810667Y-113614504D01*
X156770894Y-113671949D01*
X156706378Y-113698772D01*
X156692961Y-113699500D01*
X155573131Y-113699500D01*
X155506092Y-113679815D01*
X155464959Y-113632724D01*
X155464154Y-113633222D01*
X155461173Y-113628390D01*
X155460749Y-113627904D01*
X155460362Y-113627074D01*
X155369028Y-113479000D01*
X155369025Y-113478996D01*
X155246003Y-113355974D01*
X155245999Y-113355971D01*
X155097933Y-113264642D01*
X155097927Y-113264639D01*
X155097925Y-113264638D01*
X155067750Y-113254639D01*
X154932776Y-113209913D01*
X154830855Y-113199500D01*
X154830848Y-113199500D01*
X154244152Y-113199500D01*
X154244144Y-113199500D01*
X154142223Y-113209913D01*
X153977077Y-113264637D01*
X153977066Y-113264642D01*
X153829000Y-113355971D01*
X153828996Y-113355974D01*
X153705974Y-113478996D01*
X153705971Y-113479000D01*
X153705538Y-113479703D01*
X153705114Y-113480083D01*
X153701493Y-113484664D01*
X153700710Y-113484045D01*
X153653590Y-113526428D01*
X153584628Y-113537649D01*
X153520546Y-113509806D01*
X153498657Y-113484544D01*
X153498507Y-113484664D01*
X153495859Y-113481315D01*
X153494462Y-113479703D01*
X153494028Y-113479000D01*
X153494025Y-113478996D01*
X153371003Y-113355974D01*
X153370999Y-113355971D01*
X153222933Y-113264642D01*
X153222927Y-113264639D01*
X153222925Y-113264638D01*
X153192750Y-113254639D01*
X153057776Y-113209913D01*
X152955855Y-113199500D01*
X152955848Y-113199500D01*
X152369152Y-113199500D01*
X152369144Y-113199500D01*
X152267223Y-113209913D01*
X152102077Y-113264637D01*
X152102066Y-113264642D01*
X151954000Y-113355971D01*
X151953996Y-113355974D01*
X151830974Y-113478996D01*
X151830971Y-113479000D01*
X151739642Y-113627066D01*
X151739637Y-113627077D01*
X151684913Y-113792224D01*
X151675118Y-113888102D01*
X151648722Y-113952794D01*
X151591541Y-113992946D01*
X151551760Y-113999500D01*
X151105301Y-113999500D01*
X151038262Y-113979815D01*
X150992507Y-113927011D01*
X150987595Y-113914504D01*
X150974624Y-113875361D01*
X150959814Y-113830666D01*
X150867712Y-113681344D01*
X150743656Y-113557288D01*
X150625719Y-113484544D01*
X150594336Y-113465187D01*
X150594331Y-113465185D01*
X150592862Y-113464698D01*
X150427797Y-113410001D01*
X150427795Y-113410000D01*
X150325010Y-113399500D01*
X149699998Y-113399500D01*
X149699980Y-113399501D01*
X149597203Y-113410000D01*
X149597200Y-113410001D01*
X149430668Y-113465185D01*
X149430663Y-113465187D01*
X149281345Y-113557287D01*
X149187327Y-113651305D01*
X149126003Y-113684789D01*
X149056312Y-113679805D01*
X149011965Y-113651304D01*
X148918345Y-113557684D01*
X148769124Y-113465643D01*
X148769119Y-113465641D01*
X148602697Y-113410494D01*
X148602690Y-113410493D01*
X148499986Y-113400000D01*
X148437500Y-113400000D01*
X148437500Y-115799999D01*
X148499972Y-115799999D01*
X148499986Y-115799998D01*
X148602697Y-115789505D01*
X148769119Y-115734358D01*
X148769124Y-115734356D01*
X148918342Y-115642317D01*
X149011964Y-115548695D01*
X149073287Y-115515210D01*
X149142979Y-115520194D01*
X149187327Y-115548695D01*
X149281344Y-115642712D01*
X149430666Y-115734814D01*
X149597203Y-115789999D01*
X149699991Y-115800500D01*
X150325008Y-115800499D01*
X150325016Y-115800498D01*
X150325019Y-115800498D01*
X150381302Y-115794748D01*
X150427797Y-115789999D01*
X150594334Y-115734814D01*
X150743656Y-115642712D01*
X150867712Y-115518656D01*
X150959814Y-115369334D01*
X150987595Y-115285495D01*
X151027368Y-115228051D01*
X151091884Y-115201228D01*
X151105301Y-115200500D01*
X151687440Y-115200500D01*
X151754479Y-115220185D01*
X151792978Y-115259403D01*
X151830971Y-115320999D01*
X151830974Y-115321003D01*
X151953996Y-115444025D01*
X151954000Y-115444028D01*
X152102066Y-115535357D01*
X152102069Y-115535358D01*
X152102075Y-115535362D01*
X152267225Y-115590087D01*
X152369152Y-115600500D01*
X152369157Y-115600500D01*
X152955843Y-115600500D01*
X152955848Y-115600500D01*
X153057775Y-115590087D01*
X153222925Y-115535362D01*
X153371003Y-115444026D01*
X153494026Y-115321003D01*
X153494458Y-115320301D01*
X153494881Y-115319921D01*
X153498507Y-115315336D01*
X153499290Y-115315955D01*
X153546402Y-115273575D01*
X153615364Y-115262349D01*
X153679448Y-115290188D01*
X153701342Y-115315455D01*
X153701493Y-115315336D01*
X153704143Y-115318687D01*
X153705540Y-115320299D01*
X153705972Y-115320999D01*
X153705975Y-115321004D01*
X153828996Y-115444025D01*
X153829000Y-115444028D01*
X153977066Y-115535357D01*
X153977069Y-115535358D01*
X153977075Y-115535362D01*
X154142225Y-115590087D01*
X154244152Y-115600500D01*
X154244157Y-115600500D01*
X154830843Y-115600500D01*
X154830848Y-115600500D01*
X154932775Y-115590087D01*
X155097925Y-115535362D01*
X155246003Y-115444026D01*
X155369026Y-115321003D01*
X155460362Y-115172925D01*
X155515087Y-115007775D01*
X155515087Y-115007773D01*
X155515088Y-115007771D01*
X155516504Y-115001158D01*
X155518842Y-115001658D01*
X155541067Y-114947200D01*
X155598250Y-114907052D01*
X155638024Y-114900500D01*
X156692961Y-114900500D01*
X156760000Y-114920185D01*
X156805755Y-114972989D01*
X156810667Y-114985496D01*
X156839637Y-115072922D01*
X156839642Y-115072933D01*
X156930971Y-115220999D01*
X156930974Y-115221003D01*
X157053996Y-115344025D01*
X157054000Y-115344028D01*
X157202066Y-115435357D01*
X157202069Y-115435358D01*
X157202075Y-115435362D01*
X157367225Y-115490087D01*
X157469152Y-115500500D01*
X157469157Y-115500500D01*
X158055843Y-115500500D01*
X158055848Y-115500500D01*
X158157775Y-115490087D01*
X158322925Y-115435362D01*
X158471003Y-115344026D01*
X158594026Y-115221003D01*
X158594458Y-115220301D01*
X158594881Y-115219921D01*
X158598507Y-115215336D01*
X158599290Y-115215955D01*
X158646402Y-115173575D01*
X158715364Y-115162349D01*
X158779448Y-115190188D01*
X158801342Y-115215455D01*
X158801493Y-115215336D01*
X158804143Y-115218687D01*
X158805540Y-115220299D01*
X158805972Y-115220999D01*
X158805975Y-115221004D01*
X158928996Y-115344025D01*
X158929000Y-115344028D01*
X159077066Y-115435357D01*
X159077069Y-115435358D01*
X159077075Y-115435362D01*
X159242225Y-115490087D01*
X159344152Y-115500500D01*
X159344157Y-115500500D01*
X159930843Y-115500500D01*
X159930848Y-115500500D01*
X160032775Y-115490087D01*
X160197925Y-115435362D01*
X160346003Y-115344026D01*
X160469026Y-115221003D01*
X160560362Y-115072925D01*
X160589333Y-114985496D01*
X160629106Y-114928051D01*
X160693622Y-114901228D01*
X160707039Y-114900500D01*
X161252357Y-114900500D01*
X161319396Y-114920185D01*
X161365151Y-114972989D01*
X161375715Y-115011898D01*
X161385001Y-115102797D01*
X161385001Y-115102799D01*
X161440185Y-115269331D01*
X161440187Y-115269336D01*
X161472056Y-115321004D01*
X161532288Y-115418656D01*
X161656344Y-115542712D01*
X161805666Y-115634814D01*
X161972203Y-115689999D01*
X162074991Y-115700500D01*
X162700008Y-115700499D01*
X162700016Y-115700498D01*
X162700019Y-115700498D01*
X162756302Y-115694748D01*
X162802797Y-115689999D01*
X162969334Y-115634814D01*
X163118656Y-115542712D01*
X163212675Y-115448692D01*
X163273994Y-115415210D01*
X163343686Y-115420194D01*
X163388034Y-115448695D01*
X163481654Y-115542315D01*
X163630875Y-115634356D01*
X163630880Y-115634358D01*
X163797302Y-115689505D01*
X163797309Y-115689506D01*
X163900019Y-115699999D01*
X164462500Y-115699999D01*
X164524972Y-115699999D01*
X164524986Y-115699998D01*
X164627697Y-115689505D01*
X164794119Y-115634358D01*
X164794124Y-115634356D01*
X164943345Y-115542315D01*
X165005331Y-115480330D01*
X165067315Y-115418345D01*
X165159356Y-115269124D01*
X165159358Y-115269119D01*
X165214505Y-115102697D01*
X165214506Y-115102690D01*
X165224999Y-114999986D01*
X165225000Y-114999973D01*
X165225000Y-114750000D01*
X164462500Y-114750000D01*
X164462500Y-115699999D01*
X163900019Y-115699999D01*
X163962499Y-115699998D01*
X163962500Y-115699998D01*
X163962500Y-114250000D01*
X164462500Y-114250000D01*
X165224999Y-114250000D01*
X165224999Y-114000028D01*
X165224998Y-114000013D01*
X165214505Y-113897302D01*
X165159358Y-113730880D01*
X165159356Y-113730875D01*
X165067315Y-113581654D01*
X164943345Y-113457684D01*
X164794124Y-113365643D01*
X164794119Y-113365641D01*
X164627697Y-113310494D01*
X164627690Y-113310493D01*
X164524986Y-113300000D01*
X164462500Y-113300000D01*
X164462500Y-114250000D01*
X163962500Y-114250000D01*
X163962500Y-113300000D01*
X163962499Y-113299999D01*
X163900028Y-113300000D01*
X163900011Y-113300001D01*
X163797302Y-113310494D01*
X163630880Y-113365641D01*
X163630875Y-113365643D01*
X163481657Y-113457682D01*
X163388034Y-113551305D01*
X163326710Y-113584789D01*
X163257019Y-113579805D01*
X163212672Y-113551304D01*
X163118657Y-113457289D01*
X163118656Y-113457288D01*
X163000719Y-113384544D01*
X162969336Y-113365187D01*
X162969331Y-113365185D01*
X162941525Y-113355971D01*
X162802797Y-113310001D01*
X162802795Y-113310000D01*
X162700010Y-113299500D01*
X162074998Y-113299500D01*
X162074980Y-113299501D01*
X161972203Y-113310000D01*
X161972200Y-113310001D01*
X161805668Y-113365185D01*
X161805663Y-113365187D01*
X161656342Y-113457289D01*
X161532289Y-113581342D01*
X161532288Y-113581344D01*
X161500290Y-113633222D01*
X161495741Y-113640597D01*
X161443793Y-113687321D01*
X161390202Y-113699500D01*
X160707039Y-113699500D01*
X160640000Y-113679815D01*
X160594245Y-113627011D01*
X160589333Y-113614504D01*
X160579486Y-113584789D01*
X160560362Y-113527075D01*
X160560358Y-113527069D01*
X160560357Y-113527066D01*
X160469028Y-113379000D01*
X160469025Y-113378996D01*
X160346003Y-113255974D01*
X160345999Y-113255971D01*
X160197933Y-113164642D01*
X160197927Y-113164639D01*
X160197925Y-113164638D01*
X160179571Y-113158556D01*
X160032776Y-113109913D01*
X159930855Y-113099500D01*
X159930848Y-113099500D01*
X159344152Y-113099500D01*
X159344144Y-113099500D01*
X159242223Y-113109913D01*
X159077077Y-113164637D01*
X159077066Y-113164642D01*
X158929000Y-113255971D01*
X158928996Y-113255974D01*
X158805974Y-113378996D01*
X158805971Y-113379000D01*
X158805538Y-113379703D01*
X158805114Y-113380083D01*
X158801493Y-113384664D01*
X158800710Y-113384045D01*
X158753590Y-113426428D01*
X158684628Y-113437649D01*
X158620546Y-113409806D01*
X158598657Y-113384544D01*
X158598507Y-113384664D01*
X158595859Y-113381315D01*
X158594462Y-113379703D01*
X158594028Y-113379000D01*
X158594027Y-113378999D01*
X158594026Y-113378997D01*
X158471003Y-113255974D01*
X158471002Y-113255973D01*
X158471001Y-113255972D01*
X158421901Y-113225686D01*
X158375178Y-113173738D01*
X158363000Y-113120149D01*
X158363000Y-111686483D01*
X158382685Y-111619444D01*
X158418106Y-111583383D01*
X158510289Y-111521789D01*
X158621789Y-111410289D01*
X158709394Y-111279179D01*
X158769737Y-111133497D01*
X158800500Y-110978842D01*
X158800500Y-110824500D01*
X158820185Y-110757461D01*
X158872989Y-110711706D01*
X158924500Y-110700500D01*
X166139903Y-110700500D01*
X166206942Y-110720185D01*
X166227584Y-110736819D01*
X166966241Y-111475476D01*
X166999726Y-111536799D01*
X166996492Y-111601473D01*
X166982753Y-111643757D01*
X166949500Y-111853713D01*
X166949500Y-112066286D01*
X166979798Y-112257584D01*
X166982754Y-112276243D01*
X167022965Y-112400000D01*
X167048444Y-112478414D01*
X167144951Y-112667820D01*
X167269890Y-112839786D01*
X167420213Y-112990109D01*
X167592179Y-113115048D01*
X167592181Y-113115049D01*
X167592184Y-113115051D01*
X167601493Y-113119794D01*
X167652290Y-113167766D01*
X167669087Y-113235587D01*
X167646552Y-113301722D01*
X167601505Y-113340760D01*
X167592446Y-113345376D01*
X167592440Y-113345380D01*
X167538282Y-113384727D01*
X167538282Y-113384728D01*
X168170591Y-114017037D01*
X168107007Y-114034075D01*
X167992993Y-114099901D01*
X167899901Y-114192993D01*
X167834075Y-114307007D01*
X167817037Y-114370591D01*
X167184728Y-113738282D01*
X167184727Y-113738282D01*
X167145380Y-113792439D01*
X167048904Y-113981782D01*
X166983242Y-114183869D01*
X166983242Y-114183872D01*
X166950000Y-114393753D01*
X166950000Y-114606246D01*
X166983242Y-114816127D01*
X166983242Y-114816130D01*
X167048904Y-115018217D01*
X167145375Y-115207550D01*
X167184728Y-115261716D01*
X167817037Y-114629408D01*
X167834075Y-114692993D01*
X167899901Y-114807007D01*
X167992993Y-114900099D01*
X168107007Y-114965925D01*
X168170590Y-114982962D01*
X167538282Y-115615269D01*
X167538282Y-115615270D01*
X167592449Y-115654624D01*
X167781782Y-115751095D01*
X167983870Y-115816757D01*
X168193754Y-115850000D01*
X168406246Y-115850000D01*
X168616127Y-115816757D01*
X168616130Y-115816757D01*
X168818217Y-115751095D01*
X169007554Y-115654622D01*
X169061716Y-115615270D01*
X169061717Y-115615270D01*
X168429408Y-114982962D01*
X168492993Y-114965925D01*
X168607007Y-114900099D01*
X168700099Y-114807007D01*
X168765925Y-114692993D01*
X168782962Y-114629409D01*
X169415270Y-115261717D01*
X169415270Y-115261716D01*
X169454622Y-115207555D01*
X169459232Y-115198507D01*
X169507205Y-115147709D01*
X169575025Y-115130912D01*
X169641161Y-115153447D01*
X169680204Y-115198504D01*
X169684949Y-115207817D01*
X169809890Y-115379786D01*
X169960213Y-115530109D01*
X170132179Y-115655048D01*
X170132181Y-115655049D01*
X170132184Y-115655051D01*
X170321588Y-115751557D01*
X170523757Y-115817246D01*
X170733713Y-115850500D01*
X170733714Y-115850500D01*
X170946286Y-115850500D01*
X170946287Y-115850500D01*
X171156243Y-115817246D01*
X171358412Y-115751557D01*
X171547816Y-115655051D01*
X171637232Y-115590087D01*
X171719786Y-115530109D01*
X171719788Y-115530106D01*
X171719792Y-115530104D01*
X171870104Y-115379792D01*
X171870106Y-115379788D01*
X171870109Y-115379786D01*
X171995048Y-115207820D01*
X171995050Y-115207817D01*
X171995051Y-115207816D01*
X172091557Y-115018412D01*
X172157246Y-114816243D01*
X172190500Y-114606287D01*
X172190500Y-114393713D01*
X172157246Y-114183757D01*
X172091557Y-113981588D01*
X171995051Y-113792184D01*
X171995049Y-113792181D01*
X171995048Y-113792179D01*
X171870109Y-113620213D01*
X171719786Y-113469890D01*
X171547820Y-113344951D01*
X171539600Y-113340763D01*
X171539054Y-113340485D01*
X171488259Y-113292512D01*
X171471463Y-113224692D01*
X171493999Y-113158556D01*
X171539054Y-113119515D01*
X171547816Y-113115051D01*
X171609231Y-113070431D01*
X171719786Y-112990109D01*
X171719788Y-112990106D01*
X171719792Y-112990104D01*
X171870104Y-112839792D01*
X171870106Y-112839788D01*
X171870109Y-112839786D01*
X171995048Y-112667820D01*
X171995047Y-112667820D01*
X171995051Y-112667816D01*
X172091557Y-112478412D01*
X172157246Y-112276243D01*
X172190500Y-112066287D01*
X172190500Y-111853713D01*
X172157246Y-111643757D01*
X172091557Y-111441588D01*
X171995051Y-111252184D01*
X171995049Y-111252181D01*
X171995048Y-111252179D01*
X171870109Y-111080213D01*
X171756569Y-110966673D01*
X171723084Y-110905350D01*
X171728068Y-110835658D01*
X171769940Y-110779725D01*
X171800915Y-110762810D01*
X171932331Y-110713796D01*
X172047546Y-110627546D01*
X172133796Y-110512331D01*
X172184091Y-110377483D01*
X172190500Y-110317873D01*
X172190499Y-108522128D01*
X172184091Y-108462517D01*
X172144985Y-108357669D01*
X172133797Y-108327671D01*
X172133793Y-108327664D01*
X172047547Y-108212455D01*
X172047544Y-108212452D01*
X171932335Y-108126206D01*
X171932328Y-108126202D01*
X171797482Y-108075908D01*
X171797483Y-108075908D01*
X171737883Y-108069501D01*
X171737881Y-108069500D01*
X171737873Y-108069500D01*
X171737865Y-108069500D01*
X171563537Y-108069500D01*
X171496498Y-108049815D01*
X171450743Y-107997011D01*
X171442635Y-107968783D01*
X171442603Y-107968792D01*
X171442113Y-107966965D01*
X171440599Y-107961692D01*
X171440500Y-107960946D01*
X171440500Y-107960943D01*
X171425371Y-107904480D01*
X171399577Y-107808215D01*
X171399575Y-107808212D01*
X171399575Y-107808210D01*
X171399574Y-107808209D01*
X171364361Y-107747219D01*
X171364360Y-107747218D01*
X171320520Y-107671284D01*
X171208716Y-107559480D01*
X171208715Y-107559479D01*
X171204385Y-107555149D01*
X171204374Y-107555139D01*
X169987590Y-106338355D01*
X169987588Y-106338352D01*
X169868717Y-106219481D01*
X169868716Y-106219480D01*
X169772614Y-106163996D01*
X169731785Y-106140423D01*
X169579057Y-106099499D01*
X169420943Y-106099499D01*
X169413347Y-106099499D01*
X169413331Y-106099500D01*
X159620943Y-106099500D01*
X159468213Y-106140423D01*
X159427386Y-106163996D01*
X159427385Y-106163996D01*
X159331287Y-106219477D01*
X159331282Y-106219481D01*
X159219478Y-106331286D01*
X158537582Y-107013181D01*
X158476259Y-107046666D01*
X158449901Y-107049500D01*
X157102129Y-107049500D01*
X157102123Y-107049501D01*
X157042516Y-107055908D01*
X156907671Y-107106202D01*
X156907664Y-107106206D01*
X156792455Y-107192452D01*
X156792452Y-107192455D01*
X156706206Y-107307664D01*
X156706202Y-107307671D01*
X156655908Y-107442517D01*
X156649501Y-107502116D01*
X156649500Y-107502135D01*
X156649500Y-107660500D01*
X156629815Y-107727539D01*
X156577011Y-107773294D01*
X156525500Y-107784500D01*
X154769499Y-107784500D01*
X154702460Y-107764815D01*
X154656705Y-107712011D01*
X154645499Y-107660500D01*
X154645499Y-107487129D01*
X154645498Y-107487123D01*
X154645497Y-107487116D01*
X154639091Y-107427517D01*
X154631688Y-107407669D01*
X154588797Y-107292671D01*
X154588793Y-107292664D01*
X154502547Y-107177455D01*
X154502544Y-107177452D01*
X154387335Y-107091206D01*
X154387328Y-107091202D01*
X154252482Y-107040908D01*
X154252483Y-107040908D01*
X154192883Y-107034501D01*
X154192881Y-107034500D01*
X154192873Y-107034500D01*
X154192864Y-107034500D01*
X152397129Y-107034500D01*
X152397123Y-107034501D01*
X152337516Y-107040908D01*
X152202671Y-107091202D01*
X152202664Y-107091206D01*
X152087455Y-107177452D01*
X152087452Y-107177455D01*
X152001206Y-107292664D01*
X152001202Y-107292671D01*
X151950908Y-107427517D01*
X151944501Y-107487116D01*
X151944501Y-107487123D01*
X151944500Y-107487135D01*
X151944500Y-109282870D01*
X151944501Y-109282876D01*
X151950908Y-109342482D01*
X151951972Y-109346981D01*
X151948234Y-109416750D01*
X151907369Y-109473423D01*
X151842351Y-109499006D01*
X151831296Y-109499500D01*
X150074500Y-109499500D01*
X150007461Y-109479815D01*
X149961706Y-109427011D01*
X149950500Y-109375500D01*
X149950499Y-107602129D01*
X149950498Y-107602123D01*
X149950497Y-107602116D01*
X149944091Y-107542517D01*
X149929022Y-107502116D01*
X149893797Y-107407671D01*
X149893793Y-107407664D01*
X149807547Y-107292455D01*
X149807544Y-107292452D01*
X149692335Y-107206206D01*
X149692328Y-107206202D01*
X149557482Y-107155908D01*
X149557483Y-107155908D01*
X149497883Y-107149501D01*
X149497881Y-107149500D01*
X149497873Y-107149500D01*
X149497864Y-107149500D01*
X147702129Y-107149500D01*
X147702123Y-107149501D01*
X147642516Y-107155908D01*
X147507671Y-107206202D01*
X147507664Y-107206206D01*
X147392455Y-107292452D01*
X147392452Y-107292455D01*
X147306206Y-107407664D01*
X147306202Y-107407671D01*
X147255908Y-107542517D01*
X147249501Y-107602116D01*
X147249501Y-107602123D01*
X147249500Y-107602135D01*
X147249500Y-108075500D01*
X147229815Y-108142539D01*
X147177011Y-108188294D01*
X147125500Y-108199500D01*
X140764448Y-108199500D01*
X140697409Y-108179815D01*
X140651654Y-108127011D01*
X140641710Y-108057853D01*
X140646515Y-108037188D01*
X140695324Y-107886972D01*
X140725500Y-107696449D01*
X140725500Y-107503551D01*
X140695324Y-107313028D01*
X140635715Y-107129571D01*
X140548141Y-106957698D01*
X140434759Y-106801641D01*
X140298359Y-106665241D01*
X140142302Y-106551859D01*
X139970429Y-106464285D01*
X139786972Y-106404676D01*
X139786970Y-106404675D01*
X139786969Y-106404675D01*
X139640614Y-106381495D01*
X139596449Y-106374500D01*
X139403551Y-106374500D01*
X139367697Y-106380178D01*
X139213030Y-106404675D01*
X139029568Y-106464286D01*
X138857697Y-106551859D01*
X138768661Y-106616547D01*
X138701641Y-106665241D01*
X138701639Y-106665243D01*
X138701638Y-106665243D01*
X138565243Y-106801638D01*
X138565243Y-106801639D01*
X138565241Y-106801641D01*
X138542773Y-106832566D01*
X138489818Y-106905452D01*
X138434488Y-106948117D01*
X138364874Y-106954096D01*
X138303079Y-106921490D01*
X138268722Y-106860651D01*
X138265500Y-106832566D01*
X138265500Y-106500011D01*
X138265416Y-106490795D01*
X138265416Y-106490787D01*
X138265409Y-106490403D01*
X138265120Y-106480188D01*
X138265117Y-106480104D01*
X138264122Y-106454233D01*
X138264120Y-106454188D01*
X138263661Y-106444627D01*
X138263639Y-106444244D01*
X138262982Y-106434463D01*
X138260982Y-106408463D01*
X138260651Y-106404676D01*
X138260081Y-106398140D01*
X138260042Y-106397743D01*
X138260042Y-106397738D01*
X138259102Y-106388912D01*
X138256102Y-106362912D01*
X138253571Y-106344090D01*
X138253457Y-106343348D01*
X138250224Y-106324650D01*
X138245224Y-106298650D01*
X138243002Y-106287741D01*
X138242906Y-106287295D01*
X138240266Y-106275696D01*
X138234266Y-106250696D01*
X138232474Y-106243467D01*
X138232406Y-106243201D01*
X138232388Y-106243133D01*
X138232362Y-106243030D01*
X138230764Y-106236942D01*
X138223774Y-106210979D01*
X138216881Y-106187634D01*
X138216589Y-106186726D01*
X138208681Y-106164007D01*
X138199837Y-106140423D01*
X138199677Y-106139996D01*
X138196670Y-106132174D01*
X138196538Y-106131839D01*
X138192846Y-106122731D01*
X138182846Y-106098731D01*
X138182830Y-106098693D01*
X138179612Y-106091143D01*
X138179426Y-106090717D01*
X138175632Y-106082235D01*
X138175623Y-106082214D01*
X138164623Y-106058214D01*
X138155297Y-106038953D01*
X138154912Y-106038199D01*
X138154900Y-106038175D01*
X138144786Y-106019363D01*
X138144776Y-106019344D01*
X138131776Y-105996344D01*
X138125083Y-105984859D01*
X138124814Y-105984411D01*
X138124791Y-105984373D01*
X138117933Y-105973279D01*
X138089899Y-105929226D01*
X138077764Y-105911039D01*
X138077274Y-105910338D01*
X138065038Y-105893575D01*
X138049045Y-105872585D01*
X138040681Y-105861910D01*
X138040665Y-105861889D01*
X138040330Y-105861473D01*
X138031779Y-105851138D01*
X138014779Y-105831138D01*
X138006240Y-105821349D01*
X138005881Y-105820948D01*
X138005859Y-105820923D01*
X137996234Y-105810473D01*
X137978256Y-105791495D01*
X137973552Y-105786663D01*
X137968702Y-105781681D01*
X137968319Y-105781298D01*
X137963514Y-105776621D01*
X137958504Y-105771743D01*
X137939526Y-105753765D01*
X137929076Y-105744140D01*
X137928672Y-105743779D01*
X137928651Y-105743760D01*
X137918862Y-105735221D01*
X137898862Y-105718221D01*
X137888527Y-105709670D01*
X137888111Y-105709335D01*
X137877415Y-105700955D01*
X137877414Y-105700954D01*
X137856424Y-105684961D01*
X137839661Y-105672725D01*
X137838960Y-105672235D01*
X137820773Y-105660100D01*
X137776720Y-105632066D01*
X137765626Y-105625208D01*
X137765189Y-105624945D01*
X137765141Y-105624917D01*
X137753656Y-105618224D01*
X137730656Y-105605224D01*
X137730636Y-105605213D01*
X137711824Y-105595099D01*
X137711057Y-105594708D01*
X137711047Y-105594703D01*
X137691786Y-105585377D01*
X137667786Y-105574377D01*
X137667764Y-105574367D01*
X137659282Y-105570573D01*
X137658856Y-105570387D01*
X137651306Y-105567169D01*
X137627320Y-105557175D01*
X137627297Y-105557166D01*
X137627269Y-105557154D01*
X137618161Y-105553462D01*
X137618142Y-105553454D01*
X137618084Y-105553431D01*
X137617861Y-105553343D01*
X137610068Y-105550347D01*
X137585992Y-105541318D01*
X137563273Y-105533410D01*
X137562365Y-105533118D01*
X137539020Y-105526225D01*
X137513057Y-105519235D01*
X137506847Y-105517606D01*
X137506599Y-105517543D01*
X137506533Y-105517526D01*
X137499304Y-105515734D01*
X137474304Y-105509734D01*
X137462705Y-105507094D01*
X137462689Y-105507090D01*
X137462669Y-105507086D01*
X137462243Y-105506994D01*
X137451388Y-105504783D01*
X137425361Y-105499777D01*
X137406623Y-105496538D01*
X137405897Y-105496427D01*
X137387112Y-105493901D01*
X137387100Y-105493899D01*
X137387088Y-105493898D01*
X137369728Y-105491895D01*
X137361037Y-105490892D01*
X137352256Y-105489957D01*
X137351859Y-105489918D01*
X137341573Y-105489020D01*
X137315555Y-105487019D01*
X137305668Y-105486355D01*
X137305418Y-105486341D01*
X137295766Y-105485877D01*
X137269895Y-105484882D01*
X137265171Y-105484748D01*
X137259597Y-105484591D01*
X137259555Y-105484590D01*
X137259547Y-105484590D01*
X137259204Y-105484583D01*
X137250969Y-105484508D01*
X137250000Y-105484500D01*
X136350000Y-105484500D01*
X136349039Y-105484508D01*
X136340795Y-105484583D01*
X136340452Y-105484590D01*
X136340441Y-105484590D01*
X136340403Y-105484591D01*
X136335211Y-105484737D01*
X136330104Y-105484882D01*
X136304233Y-105485877D01*
X136294581Y-105486341D01*
X136294331Y-105486355D01*
X136284444Y-105487019D01*
X136258426Y-105489020D01*
X136248140Y-105489918D01*
X136247743Y-105489957D01*
X136238962Y-105490892D01*
X136221578Y-105492898D01*
X136212912Y-105493898D01*
X136212905Y-105493898D01*
X136212887Y-105493901D01*
X136194102Y-105496427D01*
X136193376Y-105496538D01*
X136174638Y-105499777D01*
X136148611Y-105504783D01*
X136137756Y-105506994D01*
X136137330Y-105507086D01*
X136137295Y-105507094D01*
X136125696Y-105509734D01*
X136100696Y-105515734D01*
X136093467Y-105517526D01*
X136093416Y-105517538D01*
X136093400Y-105517543D01*
X136093152Y-105517606D01*
X136086942Y-105519235D01*
X136060979Y-105526225D01*
X136037634Y-105533118D01*
X136036726Y-105533410D01*
X136014007Y-105541318D01*
X135989931Y-105550347D01*
X135982138Y-105553343D01*
X135981915Y-105553431D01*
X135972679Y-105557175D01*
X135948693Y-105567169D01*
X135941143Y-105570387D01*
X135940717Y-105570573D01*
X135932235Y-105574367D01*
X135908218Y-105585375D01*
X135888942Y-105594708D01*
X135888175Y-105595099D01*
X135869363Y-105605213D01*
X135869344Y-105605224D01*
X135846344Y-105618224D01*
X135840518Y-105621618D01*
X135834810Y-105624945D01*
X135834373Y-105625208D01*
X135823279Y-105632066D01*
X135779226Y-105660100D01*
X135761039Y-105672235D01*
X135760338Y-105672725D01*
X135743575Y-105684961D01*
X135722585Y-105700954D01*
X135711910Y-105709318D01*
X135711463Y-105709678D01*
X135701144Y-105718215D01*
X135681157Y-105735204D01*
X135671327Y-105743779D01*
X135670923Y-105744140D01*
X135660473Y-105753765D01*
X135641495Y-105771743D01*
X135631653Y-105781325D01*
X135631325Y-105781653D01*
X135621743Y-105791495D01*
X135603765Y-105810473D01*
X135594140Y-105820923D01*
X135593779Y-105821327D01*
X135585204Y-105831157D01*
X135568215Y-105851144D01*
X135559678Y-105861463D01*
X135559318Y-105861910D01*
X135550954Y-105872585D01*
X135534961Y-105893575D01*
X135522725Y-105910338D01*
X135522235Y-105911039D01*
X135510100Y-105929226D01*
X135482066Y-105973279D01*
X135475208Y-105984373D01*
X135474945Y-105984810D01*
X135471618Y-105990518D01*
X135468224Y-105996344D01*
X135468210Y-105996369D01*
X135455213Y-106019363D01*
X135445099Y-106038175D01*
X135444708Y-106038942D01*
X135435375Y-106058218D01*
X135424367Y-106082235D01*
X135420573Y-106090717D01*
X135420387Y-106091143D01*
X135417169Y-106098693D01*
X135407175Y-106122679D01*
X135403431Y-106131915D01*
X135403343Y-106132138D01*
X135400347Y-106139931D01*
X135391318Y-106164007D01*
X135383410Y-106186726D01*
X135383118Y-106187634D01*
X135376225Y-106210979D01*
X135369235Y-106236942D01*
X135367638Y-106243030D01*
X135367598Y-106243183D01*
X135367594Y-106243201D01*
X135367526Y-106243467D01*
X135365734Y-106250696D01*
X135359734Y-106275696D01*
X135359734Y-106275697D01*
X135357086Y-106287330D01*
X135356994Y-106287756D01*
X135354783Y-106298611D01*
X135349777Y-106324638D01*
X135346538Y-106343376D01*
X135346427Y-106344102D01*
X135343901Y-106362887D01*
X135340892Y-106388962D01*
X135339957Y-106397743D01*
X135339918Y-106398140D01*
X135339020Y-106408426D01*
X135337019Y-106434444D01*
X135336355Y-106444331D01*
X135336341Y-106444581D01*
X135335877Y-106454233D01*
X135334882Y-106480104D01*
X135334590Y-106490452D01*
X135334583Y-106490795D01*
X135334500Y-106500011D01*
X130700500Y-106500011D01*
X130700500Y-100524500D01*
X130720185Y-100457461D01*
X130772989Y-100411706D01*
X130824500Y-100400500D01*
X174975500Y-100400500D01*
X175042539Y-100420185D01*
G37*
%TD.AperFunction*%
%TD*%
M02*
