M48
; DRILL file KiCad 10.0.5 date 2026-10-03T23:49:44
; FORMAT={-:-/ absolute / metric / decimal}
; #@! TF.CreationDate,2026-10-03T23:49:44+05:30
; #@! TF.GenerationSoftware,Kicad,Pcbnew,10.0.5
; #@! TF.FileFunction,MixedPlating,1,2
FMAT,2
METRIC
; #@! TA.AperFunction,Plated,PTH,ViaDrill
T1C0.300
; #@! TA.AperFunction,Plated,PTH,ComponentDrill
T2C0.600
; #@! TA.AperFunction,Plated,PTH,ComponentDrill
T3C0.850
; #@! TA.AperFunction,Plated,PTH,ComponentDrill
T4C1.000
%
G90
G05
T1
X143.0Y-113.2
X143.2Y-109.5
X146.5Y-113.9
X158.0Y-110.9
X166.1Y-118.0
T3
X139.5Y-107.6
X139.5Y-112.6
T4
X146.9Y-119.7
X148.6Y-108.5
X153.295Y-108.385
X158.0Y-108.4
X168.3Y-109.42
X168.3Y-111.96
X168.3Y-114.5
X170.84Y-109.42
X170.84Y-111.96
X170.84Y-114.5
T2
G00X137.15Y-106.6
M15
G01X136.45Y-106.6
M16
G05
G00X137.15Y-113.6
M15
G01X136.45Y-113.6
M16
G05
M30
